<svg width="720" height="420" viewBox="0 0 720 420" fill="none" xmlns="http://www.w3.org/2000/svg" role="img" aria-labelledby="title desc">
  <title id="title">Attention preview</title>
  <desc id="desc">A causal attention heatmap preview with highlighted tokens and attention weights.</desc>
  <rect width="720" height="420" rx="24" fill="#F8FAFC"/>
  <rect x="20" y="20" width="680" height="380" rx="20" fill="white" stroke="#E2E8F0"/>
  <text x="56" y="76" fill="#0F172A" font-family="Arial, sans-serif" font-size="28" font-weight="700">Attention</text>
  <text x="56" y="106" fill="#475569" font-family="Arial, sans-serif" font-size="16">Each token reads from relevant earlier context through a weighted map.</text>
  <text x="82" y="150" fill="#64748B" font-family="Arial, sans-serif" font-size="13">query</text>
  <text x="158" y="334" fill="#64748B" font-family="Arial, sans-serif" font-size="13">key / value</text>
  <text x="160" y="150" fill="#94A3B8" font-family="Arial, sans-serif" font-size="12">I</text>
  <text x="194" y="150" fill="#94A3B8" font-family="Arial, sans-serif" font-size="12">saw</text>
  <text x="232" y="150" fill="#94A3B8" font-family="Arial, sans-serif" font-size="12">the</text>
  <text x="268" y="150" fill="#94A3B8" font-family="Arial, sans-serif" font-size="12">red</text>
  <text x="304" y="150" fill="#0F172A" font-family="Arial, sans-serif" font-size="12" font-weight="700">ball</text>
  <text x="342" y="150" fill="#94A3B8" font-family="Arial, sans-serif" font-size="12">roll</text>
  <text x="378" y="150" fill="#94A3B8" font-family="Arial, sans-serif" font-size="12">away</text>
  <text x="132" y="188" fill="#94A3B8" font-family="Arial, sans-serif" font-size="12">I</text>
  <text x="128" y="222" fill="#94A3B8" font-family="Arial, sans-serif" font-size="12">saw</text>
  <text x="128" y="256" fill="#94A3B8" font-family="Arial, sans-serif" font-size="12">the</text>
  <text x="128" y="290" fill="#94A3B8" font-family="Arial, sans-serif" font-size="12">red</text>
  <text x="122" y="324" fill="#0F172A" font-family="Arial, sans-serif" font-size="12" font-weight="700">ball</text>
  <g transform="translate(152 164)">
    <rect x="0" y="0" width="32" height="32" rx="8" fill="#DBEAFE"/>
    <rect x="36" y="0" width="32" height="32" rx="8" fill="#BFDBFE"/>
    <rect x="72" y="0" width="32" height="32" rx="8" fill="#93C5FD"/>
    <rect x="108" y="0" width="32" height="32" rx="8" fill="#60A5FA"/>
    <rect x="144" y="0" width="32" height="32" rx="8" fill="#2563EB"/>
    <rect x="180" y="0" width="32" height="32" rx="8" fill="#E2E8F0"/>
    <rect x="216" y="0" width="32" height="32" rx="8" fill="#E2E8F0"/>
    <rect x="0" y="36" width="32" height="32" rx="8" fill="#F1F5F9"/>
    <rect x="36" y="36" width="32" height="32" rx="8" fill="#DBEAFE"/>
    <rect x="72" y="36" width="32" height="32" rx="8" fill="#BFDBFE"/>
    <rect x="108" y="36" width="32" height="32" rx="8" fill="#93C5FD"/>
    <rect x="144" y="36" width="32" height="32" rx="8" fill="#60A5FA"/>
    <rect x="180" y="36" width="32" height="32" rx="8" fill="#E2E8F0"/>
    <rect x="216" y="36" width="32" height="32" rx="8" fill="#E2E8F0"/>
    <rect x="0" y="72" width="32" height="32" rx="8" fill="#F1F5F9"/>
    <rect x="36" y="72" width="32" height="32" rx="8" fill="#F1F5F9"/>
    <rect x="72" y="72" width="32" height="32" rx="8" fill="#DBEAFE"/>
    <rect x="108" y="72" width="32" height="32" rx="8" fill="#BFDBFE"/>
    <rect x="144" y="72" width="32" height="32" rx="8" fill="#93C5FD"/>
    <rect x="180" y="72" width="32" height="32" rx="8" fill="#E2E8F0"/>
    <rect x="216" y="72" width="32" height="32" rx="8" fill="#E2E8F0"/>
    <rect x="0" y="108" width="32" height="32" rx="8" fill="#F1F5F9"/>
    <rect x="36" y="108" width="32" height="32" rx="8" fill="#F1F5F9"/>
    <rect x="72" y="108" width="32" height="32" rx="8" fill="#F1F5F9"/>
    <rect x="108" y="108" width="32" height="32" rx="8" fill="#DBEAFE"/>
    <rect x="144" y="108" width="32" height="32" rx="8" fill="#60A5FA"/>
    <rect x="180" y="108" width="32" height="32" rx="8" fill="#E2E8F0"/>
    <rect x="216" y="108" width="32" height="32" rx="8" fill="#E2E8F0"/>
    <rect x="0" y="144" width="32" height="32" rx="8" fill="#BFDBFE"/>
    <rect x="36" y="144" width="32" height="32" rx="8" fill="#93C5FD"/>
    <rect x="72" y="144" width="32" height="32" rx="8" fill="#60A5FA"/>
    <rect x="108" y="144" width="32" height="32" rx="8" fill="#3B82F6"/>
    <rect x="144" y="144" width="32" height="32" rx="8" fill="#1D4ED8"/>
    <rect x="180" y="144" width="32" height="32" rx="8" fill="#E2E8F0"/>
    <rect x="216" y="144" width="32" height="32" rx="8" fill="#E2E8F0"/>
  </g>
  <rect x="448" y="164" width="210" height="176" rx="16" fill="#F8FAFC" stroke="#E2E8F0"/>
  <text x="472" y="196" fill="#0F172A" font-family="Arial, sans-serif" font-size="18" font-weight="700">What it shows</text>
  <text x="472" y="224" fill="#334155" font-family="Arial, sans-serif" font-size="14">• causal masking blocks future tokens</text>
  <text x="472" y="248" fill="#334155" font-family="Arial, sans-serif" font-size="14">• stronger cells mean higher weight</text>
  <text x="472" y="272" fill="#334155" font-family="Arial, sans-serif" font-size="14">• the current token can focus on</text>
  <text x="490" y="294" fill="#334155" font-family="Arial, sans-serif" font-size="14">the noun and nearby context</text>
  <rect x="472" y="312" width="76" height="10" rx="5" fill="#1D4ED8"/>
  <rect x="552" y="312" width="44" height="10" rx="5" fill="#60A5FA"/>
  <rect x="600" y="312" width="24" height="10" rx="5" fill="#DBEAFE"/>
  <text x="472" y="338" fill="#64748B" font-family="Arial, sans-serif" font-size="13">high attention → medium → low</text>
</svg>
